<?xml version="1.0" encoding="UTF-8"?> <svg xmlns="http://www.w3.org/2000/svg" xmlns:xlink="http://www.w3.org/1999/xlink" width="64px" height="64px" viewBox="0 0 64 64" fill="none" transform="rotate(0) scale(1, 1)"><path d="M23.796 54.1594C16.2659 51.2206 11.2908 43.9699 11.2908 35.8554V14.1115C14.8718 12.7088 17.7291 9.85139 19.1319 6.27039H44.8681C46.2708 9.85139 49.1283 12.7088 52.7093 14.1115V35.8554C52.7093 43.9385 47.7633 51.2093 40.204 54.1594L31.9999 57.3609L23.796 54.1594Z" fill="#f4fffa"></path><path d="M54.5 49H10L14.5 55.5L21 58.5L32 63L37 61L48 55.5L54.5 49Z" fill="url(#pattern0_873_3089)"></path><path d="M15.0564 0.25H48.9441C49.4961 0.250177 49.9441 0.697822 49.9441 1.25C49.9441 5.54323 53.436 9.03599 57.7292 9.03613C58.2814 9.03613 58.7292 9.48395 58.7292 10.0361V35.8555C58.7292 46.4564 52.2294 55.9287 42.3923 59.7676L32.363 63.6816C32.1233 63.775 31.8644 63.7705 31.6365 63.6816L21.6072 59.7676C11.7322 55.9138 5.2703 46.4153 5.27026 35.8555V10.0361L5.27515 9.93359C5.32631 9.42935 5.75246 9.03613 6.27026 9.03613C10.5636 9.03613 14.0564 5.54332 14.0564 1.25C14.0564 0.697712 14.5042 0.25 15.0564 0.25ZM56.7292 10.9873L56.5105 10.96C52.0875 10.408 48.5712 6.89172 48.0193 2.46875L47.9919 2.25H16.0076L15.9802 2.46875C15.4283 6.89172 11.912 10.408 7.48901 10.96L7.27026 10.9873V35.8555C7.2703 45.6779 13.1842 54.3332 22.3347 57.9043L31.9089 61.6416L31.9998 61.6768L32.0906 61.6416L41.6648 57.9043C50.8152 54.3334 56.7292 45.6779 56.7292 35.8555V10.9873Z" fill="#013127" stroke="#f8fbfc" stroke-width="0.5"></path><path d="M25.0968 20.0816C21.6393 20.0816 18.8264 22.8945 18.8264 26.352C18.8264 29.3816 20.9862 31.9159 23.8468 32.4969V38.3954L23.4705 38.0191C22.9823 37.5311 22.191 37.5311 21.7027 38.0191C21.2145 38.5072 21.2145 39.2987 21.7027 39.787L24.2128 42.2971C24.7075 42.7904 25.4995 42.7767 25.9807 42.2971L28.4909 39.787C28.979 39.2989 28.979 38.5074 28.4909 38.0191C28.0028 37.5314 27.2115 37.5311 26.723 38.0191L26.3467 38.3955V32.497C29.2073 31.916 31.367 29.3816 31.367 26.3521C31.3673 22.8945 28.5544 20.0816 25.0968 20.0816ZM25.0968 30.1225C23.0178 30.1225 21.3264 28.4311 21.3264 26.3521C21.3264 24.2731 23.0178 22.5817 25.0968 22.5817C27.1758 22.5817 28.8672 24.2731 28.8672 26.3521C28.8672 28.4311 27.1758 30.1225 25.0968 30.1225Z" fill="#013127"></path><path d="M41.4081 13.801C41.4081 13.1107 40.8483 12.551 40.1581 12.551H23.8416C23.1512 12.551 22.5916 13.1107 22.5916 13.801C22.5916 14.4913 23.1512 15.051 23.8416 15.051H40.1579C40.8483 15.051 41.4081 14.4914 41.4081 13.801Z" fill="#013127"></path><path d="M40.1531 30.2479V24.3494L40.5293 24.7257C41.0177 25.2138 41.8088 25.2137 42.2972 24.7257C42.7853 24.2375 42.7853 23.446 42.2972 22.9578L39.7871 20.4477C39.3147 19.9753 38.5204 19.9482 38.0192 20.4477L35.5089 22.9578C35.0208 23.4459 35.0208 24.2374 35.5089 24.7257C35.9972 25.2137 36.7884 25.2139 37.2768 24.7257L37.6532 24.3493V30.2478C34.7926 30.8288 32.6328 33.3632 32.6328 36.3927C32.6328 39.8502 35.4457 42.663 38.9032 42.663C42.3607 42.663 45.1736 39.8502 45.1736 36.3927C45.1734 33.3633 43.0137 30.8289 40.1531 30.2479ZM38.9031 40.1633C36.8241 40.1633 35.1327 38.4719 35.1327 36.3929C35.1327 34.3139 36.8241 32.6225 38.9031 32.6225C40.9821 32.6225 42.6734 34.3139 42.6734 36.3929C42.6734 38.4718 40.9819 40.1633 38.9031 40.1633Z" fill="#013127"></path><defs><pattern id="pattern0_873_3089" patternUnits="userSpaceOnUse" patternTransform="matrix(0.949672 0 0 0.949829 10 49)" preserveAspectRatio="none" viewBox="0 0 1.58279 1.58305" width="1" height="1"><g id="pattern0_873_3089_inner"><path d="M0.791394 0.395824C0.791394 0.177311 0.614211 0 0.395698 0C0.177184 0 0 0.177183 0 0.395824C0 0.614338 0.177184 0.791524 0.395698 0.791524C0.614211 0.791524 0.791394 0.614338 0.791394 0.395824Z" fill="#013127"></path></g></pattern></defs></svg> 