<?xml version="1.0" encoding="UTF-8"?> <svg xmlns="http://www.w3.org/2000/svg" width="64px" height="64px" viewBox="0 0 64 64" fill="none" transform="rotate(0) scale(1, 1)"><g clip-path="url(#clip0_403_5668)"><path d="M50.4945 63.4945C50.0842 55.6018 44.7338 49.017 37.4756 46.774V31.973H27.2254V46.5751C19.6137 48.6007 13.9294 55.3503 13.5059 63.4945H50.4945Z" fill="#f8fbfc"></path><path d="M50.4919 63.4945C50.1484 56.8937 46.352 51.2071 40.8715 48.2107C40.8715 48.2107 40.2524 53.6445 31.9382 53.6445C23.6241 53.6445 23.5672 47.9835 23.5672 47.9835C17.8528 50.912 13.8609 56.7202 13.5083 63.4945H50.4919Z" fill="#013127"></path><path d="M39.0229 63.4945H50.4945C50.1138 56.1742 45.4833 49.9797 39.0229 47.33V63.4945Z" fill="#f8fbfc"></path><path d="M24.8381 47.3897C18.4507 50.0705 13.8836 56.2271 13.5056 63.4944H24.8381V47.3897Z" fill="#f8fbfc"></path><path d="M36.5558 42.6833C36.3347 42.6833 36.1555 42.8625 36.1555 43.0835C36.1555 43.3047 36.3347 43.4839 36.5558 43.4839C36.7768 43.4839 36.9561 43.3047 36.9561 43.0835C36.9561 42.8625 36.7768 42.6833 36.5558 42.6833Z" fill="#f4fffa"></path><path d="M34.9138 41.7447C34.9138 41.9658 35.093 42.1449 35.3141 42.1449C35.5351 42.1449 35.7143 41.9657 35.7143 41.7447C35.7143 41.5973 35.6338 41.4699 35.5151 41.4004H35.1129C34.9944 41.4699 34.9138 41.5973 34.9138 41.7447Z" fill="#f4fffa"></path><path d="M33.575 43.0835C33.575 43.3047 33.7542 43.4839 33.9752 43.4839C34.1962 43.4839 34.3755 43.3047 34.3755 43.0835C34.3755 42.8625 34.1962 42.6833 33.9752 42.6833C33.7542 42.6833 33.575 42.8625 33.575 43.0835Z" fill="#f4fffa"></path><path d="M35.7143 44.3254C35.7143 44.1042 35.5351 43.925 35.3141 43.925C35.0929 43.925 34.9138 44.1042 34.9138 44.3254C34.9138 44.5464 35.093 44.7256 35.3141 44.7256C35.5351 44.7256 35.7143 44.5464 35.7143 44.3254Z" fill="#f4fffa"></path><path d="M30.9941 43.0835C30.9941 43.3047 31.1733 43.4839 31.3944 43.4839C31.6154 43.4839 31.7946 43.3047 31.7946 43.0835C31.7946 42.8625 31.6154 42.6833 31.3944 42.6833C31.1735 42.6833 30.9941 42.8625 30.9941 43.0835Z" fill="#f4fffa"></path><path d="M32.7334 43.9251C32.5123 43.9251 32.333 44.1043 32.333 44.3255C32.333 44.5465 32.5122 44.7257 32.7334 44.7257C32.9544 44.7257 33.1336 44.5465 33.1336 44.3255C33.1336 44.1043 32.9544 43.9251 32.7334 43.9251Z" fill="#f4fffa"></path><path d="M28.4136 43.0835C28.4136 43.3047 28.5928 43.4839 28.8138 43.4839C29.0349 43.4839 29.2141 43.3047 29.2141 43.0835C29.2141 42.8625 29.0349 42.6833 28.8138 42.6833C28.5928 42.6833 28.4136 42.8625 28.4136 43.0835Z" fill="#f4fffa"></path><path d="M30.1529 43.9251C29.9319 43.9251 29.7527 44.1043 29.7527 44.3255C29.7527 44.5465 29.9319 44.7257 30.1529 44.7257C30.374 44.7257 30.5532 44.5465 30.5532 44.3255C30.5532 44.1043 30.374 43.9251 30.1529 43.9251Z" fill="#f4fffa"></path><path d="M27.1719 41.7447C27.1719 41.9658 27.3511 42.1449 27.5721 42.1449C27.7932 42.1449 27.9725 41.9657 27.9725 41.7447C27.9725 41.5973 27.8919 41.4699 27.7733 41.4004H27.3711C27.2524 41.4699 27.1719 41.5973 27.1719 41.7447Z" fill="#f4fffa"></path><path d="M27.5721 44.7256C27.7932 44.7256 27.9725 44.5464 27.9725 44.3254C27.9725 44.1042 27.7933 43.925 27.5721 43.925C27.351 43.925 27.1719 44.1042 27.1719 44.3254C27.1719 44.5464 27.351 44.7256 27.5721 44.7256Z" fill="#f4fffa"></path><path d="M29.2143 45.6642C29.2143 45.4432 29.0351 45.264 28.8141 45.264C28.593 45.264 28.4138 45.4432 28.4138 45.6642C28.4138 45.8853 28.593 46.0645 28.8141 46.0645C29.035 46.0645 29.2143 45.8853 29.2143 45.6642Z" fill="#f4fffa"></path><path d="M31.7949 45.6642C31.7949 45.4432 31.6157 45.264 31.3946 45.264C31.1736 45.264 30.9944 45.4432 30.9944 45.6642C30.9944 45.8853 31.1736 46.0645 31.3946 46.0645C31.6157 46.0645 31.7949 45.8853 31.7949 45.6642Z" fill="#f4fffa"></path><path d="M34.3756 45.6642C34.3756 45.4432 34.1964 45.264 33.9753 45.264C33.7542 45.264 33.575 45.4432 33.575 45.6642C33.575 45.8853 33.7542 46.0645 33.9753 46.0645C34.1962 46.0645 34.3756 45.8853 34.3756 45.6642Z" fill="#f4fffa"></path><path d="M36.956 45.6642C36.956 45.4432 36.7768 45.264 36.5558 45.264C36.3347 45.264 36.1555 45.4432 36.1555 45.6642C36.1555 45.8853 36.3347 46.0645 36.5558 46.0645C36.7768 46.0645 36.956 45.8853 36.956 45.6642Z" fill="#f4fffa"></path><path d="M32.0001 41.7524C23.4686 41.7524 16.5525 34.8363 16.5525 26.3048V16.8302C16.5525 8.29884 23.4686 1.38275 32.0001 1.38275C40.5316 1.38275 47.4477 8.29884 47.4477 16.8302V26.3048C47.4477 34.8363 40.5316 41.7524 32.0001 41.7524Z" fill="#f8fbfc"></path><path d="M20.0406 31.9476C20.3534 30.018 19.0427 28.2001 17.113 27.8873C15.1834 27.5745 13.3655 28.8852 13.0527 30.8149C12.7399 32.7445 14.0506 34.5624 15.9803 34.8752C17.9099 35.188 19.7278 33.8773 20.0406 31.9476Z" fill="#f8fbfc"></path><path d="M50.9302 31.9503C51.243 30.0206 49.9323 28.2028 48.0027 27.89C46.073 27.5771 44.2552 28.8878 43.9424 30.8175C43.6296 32.7471 44.9403 34.565 46.8699 34.8778C48.7995 35.1906 50.6174 33.8799 50.9302 31.9503Z" fill="#f8fbfc"></path><path d="M32.0001 41.7524C23.4686 41.7524 16.5525 34.8363 16.5525 26.3048V16.8302C16.5525 8.29884 23.4686 1.38275 32.0001 1.38275C40.5316 1.38275 47.4477 8.29884 47.4477 16.8302V26.3048C47.4477 34.8363 40.5316 41.7524 32.0001 41.7524Z" fill="#f8fbfc"></path><path d="M25.5879 61.6846H24.5466C23.9443 61.6846 23.4561 61.1964 23.4561 60.5942C23.4561 59.992 23.9443 59.5038 24.5466 59.5038H25.4605C25.1139 57.1839 23.6597 55.4434 22.0596 55.4434C20.4593 55.4434 19.0049 57.1846 18.6587 59.5038H19.4597C20.0619 59.5038 20.5501 59.992 20.5501 60.5942C20.5501 61.1964 20.0619 61.6846 19.4597 61.6846H18.5314C17.9454 61.6846 17.3852 61.4268 16.9943 60.9771C16.5867 60.5085 16.403 59.8833 16.4903 59.2619C16.9777 55.7855 19.3201 53.2625 22.0598 53.2625C24.7994 53.2625 27.1417 55.7855 27.6294 59.262C27.7164 59.8834 27.5327 60.5085 27.1252 60.9773C26.7342 61.4268 26.1738 61.6846 25.5879 61.6846Z" fill="#f4fffa"></path><path d="M32.0003 0.505554C23.098 0.505554 15.8813 7.72218 15.8813 16.6244C15.8813 16.6244 15.8887 23.1422 15.9021 26.1032C15.9056 26.8917 16.5459 27.5283 17.3344 27.5283H17.5348C18.3258 27.5283 18.9671 26.887 18.9671 26.096V16.3318C19.0248 13.6564 20.113 12.654 22.1323 13.1666C29.1037 16.0834 35.7448 16.0445 42.0686 13.1666C43.9971 12.3772 45.2639 13.4328 45.2338 16.3318V26.096C45.2338 26.887 45.875 27.5283 46.6661 27.5283C47.4546 27.5283 48.0948 26.8918 48.0983 26.1032C48.1116 23.1422 48.1191 16.6244 48.1191 16.6244C48.1191 7.72218 40.9024 0.505554 32.0003 0.505554Z" fill="#f4fffa"></path><path d="M37.0607 10.148C37.5143 7.34939 35.6134 4.71294 32.8149 4.25927C30.0163 3.8056 27.3798 5.70652 26.9262 8.50508C26.4725 11.3036 28.3734 13.9401 31.172 14.3938C33.9705 14.8474 36.607 12.9465 37.0607 10.148Z" fill="#013127"></path><path d="M32.7907 11.2073C33.8351 10.7744 34.3309 9.57683 33.898 8.53248C33.4651 7.48813 32.2675 6.99246 31.2231 7.42537C30.1787 7.85828 29.683 9.05584 30.1158 10.1002C30.5487 11.1445 31.7463 11.6402 32.7907 11.2073Z" fill="#f8fbfc"></path><path d="M38.949 46.7584C38.7136 46.6097 38.4706 46.47 38.2187 46.342C38.1424 46.3031 38.061 46.2878 37.9809 46.2893V41.0935C41.06 39.8436 43.663 37.6587 45.4367 34.893C46.0295 35.2345 46.7157 35.431 47.4476 35.431C49.6782 35.431 51.4931 33.6163 51.4931 31.3855C51.4931 29.3771 50.0217 27.7066 48.1005 27.3934C48.4101 27.0515 48.6016 26.6007 48.6037 26.1054C48.6169 23.1776 48.6243 16.6902 48.6245 16.6243C48.6245 14.8172 48.3335 13.0771 47.7979 11.4469C48.3886 11.3858 48.8511 10.8853 48.8511 10.2787V8.37188C48.8511 7.7243 48.3242 7.19742 47.6766 7.19742H45.6853C42.6833 2.85281 37.6691 0 32.0001 0H32C26.3312 0 21.3169 2.85268 18.3149 7.19742H16.3234C15.6758 7.19742 15.149 7.7243 15.149 8.37188V10.2787C15.149 10.8853 15.6114 11.3861 16.2023 11.4469C15.6666 13.0772 15.3757 14.8176 15.3757 16.625C15.3758 16.6902 15.3831 23.1776 15.3963 26.1056C15.3986 26.6015 15.5904 27.0528 15.9009 27.3949C13.9792 27.7076 12.5071 29.377 12.5071 31.3857C12.5071 33.6163 14.3218 35.4311 16.5525 35.4311C17.284 35.4311 17.9702 35.2347 18.5628 34.8935C20.4694 37.8667 23.3351 40.1683 26.7198 41.359V46.1059C26.6799 46.1129 26.6399 46.1231 26.6012 46.1403C26.4313 46.2156 26.2646 46.2964 26.1009 46.3817C22.6446 47.5042 19.6105 49.5764 17.2791 52.4202C14.6921 55.5758 13.2128 59.3963 13.001 63.4686C12.9936 63.6071 13.0437 63.7423 13.1391 63.8429C13.2347 63.9435 13.3672 64.0004 13.5057 64.0004H50.4944C50.633 64.0004 50.7656 63.9435 50.861 63.8429C50.9564 63.7423 51.0064 63.6071 50.9992 63.4686C50.6113 56.0092 45.8302 49.4612 38.949 46.7584ZM50.4819 31.3855C50.4819 33.0587 49.1206 34.4199 47.4475 34.4199C46.905 34.4199 46.3966 34.2751 45.9557 34.0248C46.1842 33.6131 46.3953 33.1906 46.5874 32.7579L48.7783 31.8542C49.0363 31.7477 49.1593 31.4521 49.0528 31.1941C48.9463 30.936 48.651 30.8128 48.3927 30.9196L47.0994 31.453C47.4366 30.4666 47.6787 29.4366 47.817 28.3745C49.3165 28.5574 50.4819 29.8375 50.4819 31.3855ZM44.4569 12.7759C44.1737 12.5837 43.7631 12.4081 43.208 12.4081C42.8321 12.4081 42.3902 12.4886 41.877 12.6987C41.871 12.7012 41.865 12.7037 41.859 12.7065C39.0973 13.9634 36.2626 14.6587 33.371 14.7956C35.121 14.3568 36.5486 13.0982 37.2215 11.4533H46.7323C47.3023 13.0724 47.6135 14.8124 47.6135 16.6238C47.6134 16.689 47.6059 23.1748 47.5928 26.1009C47.5904 26.6093 47.1747 27.0229 46.666 27.0229C46.1551 27.0229 45.7393 26.6071 45.7393 26.096V16.3371C45.7622 14.1287 45.0546 13.1816 44.4569 12.7759ZM16.4073 26.1009C16.3941 23.1747 16.3869 16.6888 16.3867 16.6243C16.3867 14.8126 16.698 13.0725 17.268 11.4532H26.7786C27.428 13.0412 28.7812 14.2682 30.4487 14.7462C27.7803 14.5293 25.069 13.8473 22.3272 12.7002C22.3042 12.6907 22.2805 12.6827 22.2565 12.6766C21.1877 12.4053 20.3192 12.5167 19.6743 13.0072C18.8934 13.6012 18.4967 14.685 18.4612 16.3318V26.096C18.4612 26.6071 18.0454 27.0229 17.5344 27.0229H17.334C16.8254 27.0227 16.4097 26.6092 16.4073 26.1009ZM32 13.9538C29.4479 13.9538 27.3715 11.8774 27.3715 9.3253C27.3715 6.77315 29.4479 4.69684 32 4.69684C34.5522 4.69684 36.6285 6.77315 36.6285 9.3253C36.6285 11.8774 34.5523 13.9538 32 13.9538ZM32.0001 1.01105C37.0708 1.01105 41.5839 3.44124 44.4378 7.19742H37.2215C36.3798 5.1398 34.357 3.68578 32 3.68578C29.643 3.68578 27.6203 5.1398 26.7786 7.19742H19.5626C22.4165 3.44124 26.9296 1.01105 32.0001 1.01105ZM16.5525 34.4199C14.8794 34.4199 13.5181 33.0587 13.5181 31.3855C13.5181 29.8375 14.6836 28.5574 16.1831 28.3745C16.3196 29.4231 16.558 30.4399 16.8885 31.4149L15.6889 30.9184C15.4307 30.8114 15.1351 30.9345 15.0284 31.1923C14.9216 31.4502 15.0443 31.746 15.3023 31.8528L17.396 32.7191C17.5928 33.1656 17.8093 33.6015 18.0449 34.0255C17.6039 34.276 17.0948 34.4199 16.5525 34.4199ZM17.1577 28.0249C17.2158 28.0302 17.2746 28.0339 17.3341 28.0339H17.5345C18.6031 28.0339 19.4723 27.1645 19.4723 26.096L19.4722 16.3426C19.5001 15.0533 19.774 14.2018 20.2864 13.812C20.6679 13.5219 21.2348 13.4667 21.9725 13.6478C28.9842 16.5716 35.8131 16.5661 42.2686 13.6309C42.9523 13.3528 43.4975 13.3469 43.8891 13.6124C44.4444 13.9893 44.7424 14.9532 44.7281 16.3318V26.096C44.7281 27.1645 45.5974 28.0339 46.6659 28.0339C46.7253 28.0339 46.7837 28.0302 46.8417 28.0251C45.9859 35.4567 39.6572 41.2468 32 41.2468C24.3427 41.2467 18.0135 35.4567 17.1577 28.0249ZM32 42.2577C33.7347 42.2577 35.4051 41.9786 36.9698 41.4642V46.774C36.9698 46.9956 37.1143 47.1915 37.3261 47.2569C37.7195 47.3785 38.1057 47.5148 38.4863 47.6619C38.5285 47.6894 38.5698 47.7178 38.6114 47.7458V51.0736C37.0722 52.4427 34.8299 53.1389 31.9381 53.1389C29.2234 53.1389 27.1395 52.4961 25.7441 51.2284C25.7223 51.2084 25.6985 51.192 25.6742 51.1767V47.8223C25.9341 47.6389 26.2066 47.4713 26.4898 47.3196C26.7753 47.2283 27.0629 47.1414 27.355 47.0636C27.5764 47.0047 27.7306 46.8042 27.7306 46.5752V41.6777C29.0901 42.0555 30.5219 42.2577 32 42.2577ZM25.4604 60.0093C25.6075 60.0093 25.7474 59.9452 25.8433 59.8337C25.9394 59.7222 25.9821 59.5745 25.9604 59.429C25.5715 56.8266 23.9308 54.9378 22.0595 54.9378C20.1875 54.9378 18.547 56.8266 18.1587 59.4292C18.137 59.5745 18.1797 59.7222 18.2758 59.8337C18.3718 59.9452 18.5116 60.0093 18.6587 60.0093H19.4597C19.7822 60.0093 20.0446 60.2716 20.0446 60.5941C20.0446 60.9167 19.7822 61.179 19.4597 61.179H18.5313C18.0916 61.179 17.6704 60.9845 17.3755 60.6453C17.064 60.2872 16.9237 59.8086 16.9906 59.332C17.432 56.1847 19.4741 53.881 21.8827 53.7731C21.8886 53.7732 21.8946 53.7741 21.9005 53.7741C21.9086 53.7741 21.9162 53.7722 21.924 53.7718C21.9691 53.7703 22.0141 53.7679 22.0595 53.7679C24.5445 53.7679 26.6762 56.108 27.1284 59.3321C27.1951 59.8086 27.0548 60.2873 26.7434 60.6455C26.4486 60.9845 26.0274 61.179 25.5877 61.179H24.5463C24.2238 61.179 23.9614 60.9167 23.9614 60.5941C23.9614 60.2716 24.2238 60.0093 24.5463 60.0093H25.4604ZM24.6633 53.4839C23.9917 53.0886 23.2562 52.8438 22.4854 52.7772C22.7796 51.2098 23.5509 49.7803 24.6633 48.6729V53.4839ZM25.6744 62.1878C26.375 62.1636 27.0387 61.8468 27.5065 61.309C28.0099 60.7298 28.237 59.9579 28.1296 59.1918C27.8409 57.1336 26.933 55.3881 25.6744 54.2362V52.4697C27.2228 53.585 29.325 54.15 31.9381 54.15C34.6986 54.15 36.9358 53.5478 38.6114 52.3622V62.9889H25.6744V62.1878ZM23.2883 48.6942C22.3461 49.8685 21.7042 51.2781 21.4565 52.7949C18.7282 53.1302 16.4768 55.7163 15.9895 59.1916C15.8818 59.9579 16.1089 60.7298 16.6126 61.3088C17.0995 61.869 17.7988 62.1902 18.5314 62.1902H19.4598C20.3398 62.1902 21.0558 61.4743 21.0558 60.5943C21.0558 59.7143 20.3398 58.9983 19.4598 58.9983H19.2728C19.7077 57.2246 20.8437 55.949 22.0597 55.949C23.1317 55.949 24.1414 56.9411 24.6637 58.3918V58.9983H24.5467C23.6667 58.9983 22.9507 59.7143 22.9507 60.5943C22.9507 61.4743 23.6667 62.1902 24.5467 62.1902H24.6637V62.9891H14.0462C14.5422 56.8745 18.0695 51.5617 23.2883 48.6942ZM39.6226 62.9889V51.338C39.6247 51.3114 39.6245 51.2852 39.6226 51.2586V48.559C41.1505 50.0121 42.0437 52.039 42.0437 54.2229V56.1058C40.8813 56.3825 40.0132 57.4269 40.0132 58.6726C40.0132 60.1288 41.1979 61.3135 42.6541 61.3135C44.1102 61.3135 45.2951 60.1288 45.2951 58.6726C45.2951 57.3531 44.321 56.2597 43.0547 56.0655V54.2229C43.0547 52.3585 42.4782 50.5954 41.4517 49.1368C46.2484 52.1052 49.4821 57.2332 49.954 62.9889H39.6226Z" fill="#013127"></path><path d="M26.224 23.8351C25.4155 23.8351 24.76 24.4907 24.76 25.2991C24.76 26.1077 25.4154 26.7631 26.224 26.7631C27.0326 26.7631 27.6879 26.1077 27.6879 25.2991C27.688 24.4906 27.0326 23.8351 26.224 23.8351Z" fill="#013127"></path><path d="M38.0673 23.8351C37.2588 23.8351 36.6033 24.4907 36.6033 25.2991C36.6033 26.1077 37.2587 26.7631 38.0673 26.7631C38.8757 26.7631 39.5311 26.1077 39.5311 25.2991C39.5311 24.4906 38.8757 23.8351 38.0673 23.8351Z" fill="#013127"></path><path d="M33.0741 27.1182C32.7906 27.7857 32.4101 28.3435 32.4065 28.3489C32.2483 28.5789 32.3066 28.8937 32.5366 29.0518C32.624 29.1121 32.7238 29.1408 32.8226 29.1408C32.9833 29.1408 33.1416 29.0643 33.2396 28.9217C33.2575 28.8958 33.68 28.2781 34.0048 27.5132C34.3845 26.6192 33.9577 25.0094 33.5059 23.3049C33.2524 22.3486 32.9903 21.36 32.9903 20.8228C32.9903 20.5437 32.7639 20.3173 32.4848 20.3173C32.2056 20.3173 31.9792 20.5437 31.9792 20.8228C31.9792 21.4918 32.246 22.4983 32.5286 23.5639C32.8619 24.8213 33.3183 26.5431 33.0741 27.1182Z" fill="#013127"></path><path d="M30.5989 28.5102C30.6617 28.5359 30.7268 28.5481 30.7906 28.5481C30.9897 28.5481 31.1784 28.4298 31.2586 28.2344L31.4297 27.8171C31.5356 27.5588 31.412 27.2635 31.1538 27.1574C30.8949 27.0515 30.6 27.1751 30.4941 27.4333L30.323 27.8506C30.2172 28.1088 30.3407 28.4042 30.5989 28.5102Z" fill="#013127"></path><path d="M34.3661 31.5982C34.4832 31.3465 34.374 31.0491 34.1231 30.9303C33.8716 30.8116 33.5713 30.9193 33.4506 31.1693C33.4324 31.2069 32.9944 32.0903 31.9756 32.0903C30.9609 32.0903 30.5223 31.2141 30.5008 31.1698C30.3822 30.9188 30.0832 30.81 29.8307 30.927C29.5774 31.0445 29.4673 31.3452 29.585 31.5983C29.6136 31.6598 30.3018 33.1014 31.9756 33.1014C33.6493 33.1014 34.3376 31.6598 34.3661 31.5982Z" fill="#013127"></path><path d="M23.2969 19.9987C23.0867 20.1825 23.0655 20.502 23.2494 20.712C23.433 20.9222 23.7527 20.9434 23.9627 20.7595C25.12 19.7467 26.1981 19.7467 27.3552 20.7595C27.4512 20.8435 27.5697 20.8847 27.6879 20.8847C27.8286 20.8847 27.9687 20.8263 28.0686 20.7121C28.2525 20.502 28.2312 20.1827 28.0212 19.9987C26.4757 18.6462 24.8421 18.6463 23.2969 19.9987Z" fill="#013127"></path><path d="M36.3712 20.7595C37.5286 19.7465 38.6063 19.7468 39.7634 20.7595C39.8594 20.8434 39.978 20.8846 40.0961 20.8846C40.2368 20.8846 40.3769 20.8262 40.4768 20.7121C40.6607 20.5019 40.6394 20.1827 40.4294 19.9987C38.8839 18.6464 37.2508 18.6461 35.7053 19.9987C35.4952 20.1826 35.474 20.5019 35.6579 20.7121C35.8417 20.922 36.161 20.9434 36.3712 20.7595Z" fill="#013127"></path></g><defs><clipPath id="clip0_403_5668"><rect width="64" height="64" fill="#ffffff"></rect></clipPath></defs></svg> 